<svg width="134" height="131" viewBox="0 0 134 131" fill="none" xmlns="http://www.w3.org/2000/svg">
    <ellipse cx="66.5053" cy="65.5" rx="66.5053" ry="65.5" fill="#D9D9D9"/>
    <path d="M98.8 66.7773C98.8 64.5867 98.588 62.3254 98.2347 60.2054H67.636V72.7134H85.1613C84.4547 76.7414 82.1227 80.2747 78.66 82.536L89.1187 90.6627C95.2667 84.9387 98.8 76.6 98.8 66.7773Z" fill="#4280EF"/>
    <path d="M67.636 98.436C76.3987 98.436 83.748 95.5387 89.1187 90.592L78.66 82.536C75.7627 84.5147 72.0174 85.6453 67.636 85.6453C59.156 85.6453 52.0187 79.9213 49.404 72.2893L38.6627 80.5573C44.1747 91.5107 55.34 98.436 67.636 98.436Z" fill="#34A353"/>
    <path d="M49.404 72.2187C48.0613 68.1907 48.0613 63.8094 49.404 59.7814L38.6627 51.4427C34.0693 60.6294 34.0693 71.4414 38.6627 80.5574L49.404 72.2187Z" fill="#F6B704"/>
    <path d="M67.636 46.4253C72.2294 46.3547 76.752 48.1213 80.0734 51.3013L89.3307 41.9733C83.4654 36.4613 75.692 33.4933 67.636 33.564C55.34 33.564 44.1747 40.4893 38.6627 51.4427L49.404 59.7813C52.0187 52.0787 59.156 46.4253 67.636 46.4253Z" fill="#E54335"/>
</svg>
