<svg width="252" height="252" viewBox="0 0 252 252" fill="none" xmlns="http://www.w3.org/2000/svg">
    <circle cx="126" cy="126" r="126" fill="#D9D9D9"/>
    <g clip-path="url(#clip0_0_1)">
        <path d="M76.8152 147.248C84.3247 147.248 90.4124 141.16 90.4124 133.651C90.4124 126.141 84.3247 120.054 76.8152 120.054C69.3056 120.054 63.218 126.141 63.218 133.651C63.218 141.16 69.3056 147.248 76.8152 147.248Z" fill="#F9CDB7"/>
        <path d="M87.4006 125.351C84.7883 123.65 81.6707 122.899 78.5702 123.223C75.4698 123.547 72.5749 124.926 70.3706 127.131C68.1663 129.335 66.7866 132.23 66.4626 135.33C66.1386 138.431 66.8901 141.548 68.5911 144.161C66.8925 143.058 65.4619 141.589 64.4037 139.862C63.3455 138.135 62.6865 136.193 62.4749 134.179C62.2632 132.164 62.5043 130.128 63.1804 128.219C63.8566 126.309 64.9507 124.575 66.383 123.143C67.8152 121.711 69.5493 120.617 71.4585 119.941C73.3678 119.264 75.404 119.023 77.4184 119.235C79.4328 119.447 81.3744 120.106 83.1015 121.164C84.8285 122.222 86.2973 123.653 87.4006 125.351Z" fill="#E2A78D"/>
        <path d="M76.8152 148.256C73.8334 148.257 70.9185 147.373 68.4389 145.717C65.9594 144.061 64.0267 141.707 62.8852 138.953C61.7437 136.198 61.4447 133.167 62.026 130.242C62.6073 127.318 64.0428 124.631 66.151 122.523C68.2591 120.414 70.9453 118.978 73.8696 118.396C76.794 117.814 79.8253 118.112 82.5801 119.253C85.335 120.394 87.6896 122.326 89.3462 124.806C91.0028 127.285 91.8871 130.199 91.8871 133.181C91.8784 137.176 90.2878 141.005 87.4632 143.83C84.6387 146.655 80.8101 148.247 76.8152 148.256ZM76.8152 121.065C74.4179 121.065 72.0743 121.775 70.0808 123.106C68.0873 124.438 66.5335 126.33 65.6158 128.545C64.6981 130.76 64.4578 133.197 64.9253 135.548C65.3928 137.899 66.5472 140.059 68.2423 141.754C69.9374 143.449 72.0971 144.604 74.4483 145.071C76.7995 145.539 79.2366 145.298 81.4512 144.381C83.6659 143.463 85.5586 141.909 86.89 139.916C88.2215 137.922 88.9318 135.578 88.9311 133.181C88.9294 129.967 87.6527 126.886 85.3811 124.612C83.1096 122.339 80.0289 121.06 76.8152 121.055V121.065Z" fill="#213346"/>
        <path d="M175.185 147.248C182.694 147.248 188.782 141.16 188.782 133.651C188.782 126.141 182.694 120.054 175.185 120.054C167.675 120.054 161.588 126.141 161.588 133.651C161.588 141.16 167.675 147.248 175.185 147.248Z" fill="#F9CDB7"/>
        <path d="M175.188 148.256C172.206 148.257 169.291 147.373 166.812 145.717C164.332 144.061 162.4 141.707 161.258 138.953C160.117 136.198 159.818 133.167 160.399 130.242C160.98 127.318 162.416 124.631 164.524 122.523C166.632 120.414 169.318 118.978 172.243 118.396C175.167 117.814 178.198 118.112 180.953 119.253C183.708 120.394 186.063 122.326 187.719 124.806C189.376 127.285 190.26 130.199 190.26 133.181C190.251 137.176 188.661 141.005 185.836 143.83C183.012 146.655 179.183 148.247 175.188 148.256ZM175.188 121.065C172.791 121.065 170.447 121.775 168.454 123.106C166.46 124.438 164.906 126.33 163.989 128.545C163.071 130.76 162.831 133.197 163.298 135.548C163.766 137.899 164.92 140.059 166.615 141.754C168.31 143.449 170.47 144.604 172.821 145.071C175.172 145.539 177.61 145.298 179.824 144.381C182.039 143.463 183.932 141.909 185.263 139.916C186.594 137.922 187.305 135.578 187.304 133.181C187.302 129.967 186.026 126.886 183.754 124.612C181.483 122.339 178.402 121.06 175.188 121.055V121.065Z" fill="#213346"/>
        <path d="M124.658 63.1785H125.575C138.301 63.1785 150.506 68.234 159.505 77.2328C168.504 86.2316 173.559 98.4367 173.559 111.163V142.364C173.561 148.726 172.31 155.027 169.877 160.905C167.445 166.784 163.878 172.125 159.381 176.626C154.883 181.126 149.544 184.696 143.667 187.132C137.789 189.568 131.49 190.823 125.128 190.825C112.28 190.825 99.9578 185.721 90.8728 176.636C81.7877 167.551 76.6838 155.229 76.6838 142.381V111.179C76.6838 98.4531 81.7393 86.2481 90.7381 77.2492C99.7369 68.2504 111.942 63.1949 124.668 63.1949L124.658 63.1785Z" fill="#F9CDB7"/>
        <path d="M131.27 189.849C129.062 190.157 126.835 190.311 124.606 190.313C97.9566 190.313 76.1616 168.514 76.1616 141.868V110.01C76.1616 83.9652 97.4672 62.6563 123.512 62.6563H125.696C127.562 62.6541 129.427 62.7637 131.28 62.9847C110.105 65.5071 91.7655 84.7961 88.3991 106.296C87.3625 113.152 85.9004 119.938 84.021 126.613L79.6364 141.868C79.6364 166.255 107.744 186.578 131.27 189.849Z" fill="#E2A78D"/>
        <path d="M124.606 192.303C111.377 192.266 98.7008 186.994 89.3466 177.64C79.9925 168.286 74.7209 155.609 74.6836 142.381V111.163C74.7183 98.0559 79.9402 85.4956 89.2079 76.2272C98.4757 66.9588 111.036 61.7361 124.143 61.7005H125.059C138.167 61.7343 150.729 66.9563 159.998 76.2249C169.267 85.4935 174.49 98.0548 174.525 111.163V142.381C174.486 155.609 169.213 168.284 159.86 177.638C150.506 186.992 137.831 192.264 124.602 192.303H124.606ZM124.143 64.6565C111.819 64.6911 100.01 69.602 91.296 78.3162C82.5818 87.0303 77.6709 98.8393 77.6363 111.163V142.381C77.6231 151.671 80.3691 160.757 85.5261 168.484C90.6831 176.212 98.0188 182.235 106.603 185.788C115.187 189.341 124.633 190.266 133.744 188.443C142.854 186.621 151.217 182.135 157.774 175.553C162.153 171.21 165.626 166.042 167.994 160.348C170.362 154.654 171.577 148.547 171.569 142.381V111.163C171.534 98.8393 166.623 87.0303 157.909 78.3162C149.195 69.602 137.386 64.6911 125.062 64.6565H124.143Z" fill="#213346"/>
        <path d="M168.627 134.278V134.34C168.445 134.35 168.518 134.308 168.627 134.278Z" fill="#BFE1EE"/>
        <path d="M182.745 134.393C182.518 134.393 182.297 134.314 182.121 134.17C181.945 134.026 181.825 133.825 181.78 133.602C180.446 126.934 173.723 128.054 173.438 128.107C173.307 128.135 173.173 128.136 173.042 128.111C172.912 128.086 172.787 128.034 172.677 127.959C172.567 127.885 172.473 127.789 172.401 127.677C172.329 127.565 172.281 127.439 172.258 127.308C172.236 127.177 172.241 127.042 172.272 126.913C172.303 126.784 172.36 126.662 172.44 126.555C172.519 126.448 172.619 126.359 172.735 126.292C172.85 126.225 172.977 126.182 173.109 126.166C176.183 125.617 182.361 126.383 183.727 133.214C183.779 133.47 183.726 133.736 183.581 133.954C183.437 134.171 183.212 134.322 182.956 134.373C182.886 134.388 182.816 134.394 182.745 134.393Z" fill="#213346"/>
        <path d="M68.7258 135.264C68.6854 135.267 68.6447 135.267 68.6043 135.264C68.3452 135.231 68.1095 135.098 67.9488 134.892C67.7881 134.687 67.7155 134.426 67.7471 134.167C68.3218 129.493 70.3056 127.184 71.8689 126.071C72.8858 125.315 74.0917 124.854 75.3536 124.74C75.6149 124.73 75.8697 124.824 76.0619 125.001C76.2541 125.179 76.3679 125.425 76.3783 125.686C76.3888 125.948 76.295 126.202 76.1176 126.395C75.9402 126.587 75.6938 126.701 75.4324 126.711C75.219 126.711 70.6045 127.066 69.7013 134.406C69.6702 134.643 69.5542 134.861 69.3747 135.018C69.1953 135.176 68.9647 135.263 68.7258 135.264Z" fill="#213346"/>
        <path d="M122.382 215.307C154.983 215.307 181.412 207.534 181.412 197.945C181.412 188.357 154.983 180.584 122.382 180.584C89.7811 180.584 63.3526 188.357 63.3526 197.945C63.3526 207.534 89.7811 215.307 122.382 215.307Z" fill="#DFE7EA"/>
        <path d="M172.009 150.06C178.955 162.737 176.745 175.093 176.988 186.884L173.227 182.722C171.816 190.075 168.4 196.895 163.358 202.429C162.255 200.411 160.688 198.686 158.786 197.394C157.397 203.601 154.102 209.218 149.363 213.461C150.032 211.844 150.347 210.102 150.287 208.354C150.227 206.605 149.793 204.889 149.015 203.322C148.18 205.909 146.808 208.292 144.99 210.313C143.172 212.335 140.947 213.95 138.462 215.054C139.245 213.954 139.735 212.674 139.886 211.333C140.037 209.991 139.844 208.634 139.326 207.388C135.497 213.888 124.488 214.085 120.431 207.716C120.149 209.001 120.356 210.689 121.666 210.797C116.149 211.648 111.097 209.322 107.301 205.23C107.533 207.551 108.632 209.7 110.378 211.247C107.431 211.061 104.585 210.104 102.125 208.472C99.6642 206.84 97.6753 204.591 96.3571 201.949C89.2366 202.392 82.126 197.512 79.978 190.713C80.1265 191.287 80.1228 191.889 79.9673 192.46C79.8118 193.031 79.5098 193.552 79.0912 193.971C66.7913 187.728 67.4482 159.729 75.5047 150.493C75.5047 150.493 92.4618 153.213 102.765 161.023C105.566 163.151 105.649 160.156 109.662 158.487C115.075 156.244 124.727 154.667 130.212 154.644C138.229 154.608 142.515 164.777 147.652 159.952C161.256 147.192 171.891 149.846 172.009 150.06Z" fill="#B46078"/>
        <path d="M177.464 185.429L173.704 181.258C172.295 188.608 168.885 195.427 163.851 200.964C162.747 198.946 161.18 197.22 159.279 195.926C157.889 202.133 154.595 207.75 149.856 211.993C150.522 210.374 150.834 208.631 150.771 206.882C150.708 205.133 150.272 203.417 149.491 201.851C148.659 204.441 147.288 206.827 145.47 208.852C143.651 210.876 141.426 212.494 138.939 213.599C139.721 212.499 140.21 211.219 140.361 209.879C140.512 208.539 140.32 207.182 139.802 205.936C135.973 212.436 124.964 212.633 120.908 206.265C120.622 207.549 120.944 212.278 122.257 212.39C116.74 213.237 111.573 207.871 107.777 203.778C107.997 206.077 108.568 210.212 110.299 211.736C104.42 211.438 99.3885 205.785 96.8333 200.484C89.7128 200.928 82.6022 196.05 80.4542 189.248C80.6027 189.822 80.599 190.425 80.4435 190.997C80.288 191.569 79.986 192.09 79.5675 192.51C75.3175 190.355 72.5127 185.662 70.9986 180.065C76.4375 184.03 82.8387 186.742 89.1676 189.193C93.4636 190.835 97.8153 192.421 102.344 193.245C106.739 194.044 111.229 194.122 115.695 194.201C128.087 194.415 140.985 194.53 152.198 189.202C155.41 187.675 158.796 185.064 158.684 181.507C158.556 177.441 154.109 175.122 150.316 173.667C158.395 172.469 165.023 166.202 168.708 158.914C170.086 156.144 171.175 153.24 171.956 150.247L173.043 151.094C176.364 162.737 177.221 173.631 177.464 185.429Z" fill="#96426E"/>
        <path d="M145.941 217.98L148.476 211.956C149.171 210.288 149.431 208.471 149.232 206.675C147.032 210.583 143.629 213.677 139.53 215.497L134.531 217.681L137.743 213.274C138.459 212.265 138.869 211.071 138.922 209.835C136.741 211.763 133.763 212.886 130.468 212.945C127.931 213.021 125.425 212.372 123.243 211.076C123.597 212.879 123.62 214.482 122.221 215.126L121.604 215.412L120.986 215.126C116.457 213.037 112.904 210.882 109.921 208.39C110.427 210.459 110.999 211.201 111.291 211.457L114.48 214.259L110.24 214.042C103.957 213.714 98.7448 207.835 95.9531 202.547H95.9367C89.8344 202.547 83.9521 199.121 80.7695 193.965L80.6185 194.122L79.8598 194.861L78.9139 194.382C74.2205 191.997 70.8377 186.598 69.3958 179.162C67.284 168.281 69.6849 155.104 74.8676 149.166C75.1293 148.887 75.4892 148.72 75.8715 148.7C76.2539 148.681 76.6288 148.811 76.9174 149.062C77.206 149.314 77.3857 149.668 77.4187 150.049C77.4517 150.431 77.3354 150.81 77.0944 151.107C72.447 156.438 70.3384 168.514 72.2959 178.601C73.429 184.427 75.8036 188.782 79.0453 191.032C79.1063 190.754 79.0996 190.466 79.0256 190.191L81.8632 189.37C83.7977 195.492 90.3303 199.975 96.7413 199.574L97.7267 199.512L98.1569 200.409C100.725 205.733 104.256 208.964 107.379 210.337C106.815 208.428 106.455 206.464 106.305 204.478L105.888 200.13L108.861 203.332C111.817 206.514 115.393 209.089 120.3 211.543C120.185 211.004 120.044 210.433 119.942 210.025C119.515 208.327 119.285 207.326 119.462 206.514L120.228 203.02L122.152 206.035C123.745 208.531 126.75 210.006 130.196 210.006H130.413C133.96 209.94 136.981 208.363 138.528 205.736L140.009 203.22L141.159 205.9C141.811 207.435 142.038 209.118 141.816 210.771C144.77 208.554 146.962 205.473 148.089 201.956L149.183 198.487L150.825 201.736C151.77 203.63 152.263 205.718 152.263 207.835C154.976 204.41 156.879 200.416 157.83 196.152L158.3 194.024L160.103 195.249C161.62 196.279 162.947 197.562 164.028 199.042C168.182 193.982 171.013 187.967 172.265 181.54L172.82 178.62L176.259 182.427C176.968 170.081 175.152 160.001 170.62 150.927C170.506 150.752 170.431 150.556 170.399 150.35C170.368 150.145 170.379 149.935 170.434 149.734C170.489 149.534 170.585 149.347 170.717 149.186C170.849 149.025 171.013 148.894 171.199 148.801C171.385 148.708 171.588 148.655 171.796 148.646C172.004 148.637 172.211 148.672 172.405 148.749C172.598 148.826 172.773 148.942 172.918 149.091C173.063 149.24 173.175 149.418 173.247 149.613C178.446 160.024 180.253 171.618 178.932 186.118L178.627 189.482L174.512 184.926C172.786 191.476 169.496 197.509 164.924 202.507L163.525 204.038L162.54 202.218C161.901 201.047 161.084 199.981 160.119 199.059C158.42 204.682 155.205 209.728 150.828 213.645L145.941 217.98Z" fill="#213346"/>
        <path d="M113.659 183.504C112.776 183.502 111.93 183.151 111.306 182.527C110.682 181.903 110.33 181.057 110.329 180.174V167.447C110.331 166.564 110.683 165.719 111.307 165.095C111.931 164.471 112.777 164.119 113.659 164.117H136.952C137.834 164.12 138.678 164.472 139.302 165.096C139.925 165.72 140.276 166.565 140.279 167.447V180.174C140.277 181.056 139.926 181.902 139.303 182.526C138.679 183.15 137.834 183.502 136.952 183.504" fill="#F9CDB7"/>
        <path d="M140.844 168.833V172.774C140.585 172.18 140.159 171.674 139.617 171.318C139.075 170.962 138.441 170.772 137.792 170.771H114.49C113.608 170.772 112.762 171.123 112.138 171.747C111.514 172.37 111.162 173.216 111.16 174.098V182.88C110.979 182.466 110.885 182.018 110.884 181.566V168.833C110.886 167.951 111.238 167.107 111.861 166.483C112.484 165.86 113.329 165.508 114.211 165.506H137.53C138.409 165.512 139.25 165.865 139.871 166.488C140.491 167.111 140.841 167.954 140.844 168.833Z" fill="#E2A78D"/>
        <path d="M125.171 163.729C127.575 163.729 129.923 163.729 132.189 163.765L135.526 163.805H136.341H136.745H136.856H137.004L137.297 163.824C138.067 163.912 138.806 164.182 139.451 164.612C140.065 165.021 140.576 165.564 140.946 166.202C141.316 166.839 141.535 167.553 141.586 168.288V168.554V168.777V169.142L141.566 169.867C141.566 170.344 141.54 170.817 141.523 171.28C141.464 173.132 141.399 174.86 141.323 176.433C141.248 178.006 141.165 179.435 141.077 180.686C141.077 180.844 141.057 181.015 141.044 181.149C141.044 181.225 141.044 181.297 141.044 181.373C141.044 181.448 141.028 181.553 141.018 181.639C140.977 181.986 140.892 182.327 140.765 182.653C140.541 183.21 140.192 183.707 139.747 184.108C139.164 184.647 138.408 184.959 137.615 184.989C137.417 184.994 137.218 184.964 137.03 184.9C136.902 184.851 136.84 184.798 136.84 184.739C136.84 184.68 136.902 184.624 137.011 184.562L137.474 184.338C138.003 184.085 138.461 183.705 138.807 183.232C139.029 182.914 139.184 182.556 139.264 182.177C139.303 181.969 139.317 181.758 139.307 181.547V181.373C139.307 181.297 139.307 181.225 139.29 181.149C139.29 180.998 139.267 180.844 139.257 180.686C139.169 179.435 139.086 178.009 139.014 176.433C138.942 174.856 138.87 173.132 138.811 171.28C138.811 170.817 138.781 170.344 138.768 169.867L138.748 169.142V168.777V168.685V168.633V168.527C138.712 168.248 138.612 167.981 138.458 167.745C138.303 167.51 138.097 167.312 137.855 167.168C137.611 167.023 137.337 166.936 137.053 166.915H136.804H136.4H135.585L132.248 166.954C129.982 166.977 127.634 166.987 125.23 166.987C122.826 166.987 120.477 166.987 118.211 166.954L114.871 166.915H114.06H113.656H113.406C113.123 166.936 112.849 167.023 112.605 167.168C112.363 167.312 112.157 167.51 112.002 167.745C111.847 167.981 111.748 168.248 111.711 168.527V168.633V168.685V168.777V169.142L111.692 169.867C111.692 170.344 111.662 170.817 111.649 171.28C111.59 173.132 111.521 174.86 111.445 176.433C111.37 178.006 111.291 179.435 111.202 180.686C111.202 180.844 111.179 181.015 111.169 181.149C111.169 181.225 111.169 181.297 111.169 181.373V181.547C111.159 181.758 111.173 181.969 111.212 182.177C111.29 182.556 111.446 182.915 111.669 183.232C112.014 183.706 112.472 184.087 113.002 184.338L113.462 184.562C113.574 184.624 113.633 184.683 113.633 184.739C113.633 184.795 113.574 184.851 113.446 184.9C113.258 184.964 113.06 184.994 112.861 184.989C112.067 184.959 111.31 184.647 110.726 184.108C110.282 183.707 109.935 183.209 109.711 182.653C109.584 182.327 109.499 181.986 109.458 181.639C109.458 181.553 109.435 181.445 109.432 181.373L109.412 181.149C109.412 180.998 109.393 180.844 109.38 180.686C109.294 179.435 109.212 178.009 109.136 176.433C109.061 174.856 108.995 173.132 108.936 171.28C108.936 170.817 108.907 170.344 108.893 169.867C108.893 169.628 108.877 169.385 108.87 169.142V168.777V168.554V168.288C108.952 167.16 109.425 166.096 110.209 165.281C110.992 164.466 112.036 163.95 113.16 163.824L113.452 163.805H113.6H113.712H114.116H114.927L118.267 163.765C120.418 163.752 122.767 163.729 125.171 163.729Z" fill="#213346"/>
        <path d="M79.6331 156.891C79.5578 157.924 79.6118 158.962 79.7941 159.982C79.9949 161.035 80.3259 162.06 80.7794 163.033C80.04 162.198 79.4078 161.275 78.8974 160.284C78.386 159.251 78.0043 158.159 77.7611 157.032C77.5145 155.877 77.4043 154.696 77.4326 153.515C77.446 152.913 77.4921 152.312 77.5706 151.715C77.6475 151.084 77.776 150.46 77.9548 149.849L81.3738 151.347C81.1204 151.73 80.9006 152.135 80.717 152.556C80.5184 153.006 80.343 153.467 80.1915 153.935C79.8921 154.896 79.7047 155.887 79.6331 156.891Z" fill="#213346"/>
        <path d="M84.7305 159.699C84.9965 162.13 86.077 164.557 87.6404 166.665C85.5235 164.942 83.898 162.691 82.9273 160.139C82.434 158.776 82.1774 157.339 82.1687 155.889C82.1561 154.356 82.4497 152.835 83.0324 151.416L86.3168 153.183C85.0589 154.861 84.471 157.292 84.7305 159.699Z" fill="#213346"/>
        <path d="M94.0318 161.528C94.2992 163.887 95.065 166.162 96.2783 168.202C94.5028 166.439 93.1204 164.32 92.2221 161.985C91.2639 159.532 90.8374 156.903 90.9707 154.273L94.6492 154.904C93.9724 157.043 93.7618 159.302 94.0318 161.528Z" fill="#213346"/>
        <path d="M154.576 160.195C154.7 161.155 154.665 162.13 154.474 163.079C154.309 163.811 154.06 164.238 153.817 164.222C153.347 164.172 153.16 162.451 152.891 160.395C152.621 158.339 152.444 156.615 152.891 156.454C153.107 156.385 153.452 156.743 153.784 157.413C154.198 158.291 154.466 159.231 154.576 160.195Z" fill="#213346"/>
        <path d="M161.975 158.251C161.951 159.618 161.685 160.97 161.19 162.244C160.793 163.23 160.372 163.736 160.159 163.66C159.709 163.489 160.241 161.121 160.297 158.205C160.353 155.288 159.985 152.897 160.445 152.753C160.658 152.69 161.052 153.229 161.4 154.221C161.826 155.52 162.021 156.884 161.975 158.251Z" fill="#213346"/>
        <path d="M169.766 157.045C169.908 158.048 169.963 159.061 169.93 160.074C169.903 160.899 169.806 161.721 169.641 162.53C169.349 163.906 168.945 164.695 168.731 164.649C168.248 164.547 168.702 161.243 168.104 157.285C167.506 153.327 166.232 150.25 166.672 150.023C166.869 149.922 167.463 150.575 168.12 151.817C168.499 152.548 168.819 153.31 169.076 154.093C169.386 155.056 169.617 156.044 169.766 157.045Z" fill="#213346"/>
        <path d="M82.5135 190.648C82.3851 189.707 82.3565 188.756 82.4281 187.81C82.4637 187.399 82.5207 186.99 82.5989 186.585C82.6652 186.232 82.7519 185.883 82.8584 185.54C83.2492 184.283 83.7386 183.609 83.9422 183.681C84.1458 183.754 84.0966 184.545 84.0243 185.754C84.0243 186.059 83.9849 186.388 83.9816 186.739C83.9783 187.091 83.9816 187.468 83.9816 187.859C84.0003 188.712 84.0672 189.563 84.182 190.408C84.3118 191.25 84.485 192.086 84.7009 192.911C84.8126 193.288 84.9078 193.653 85.0293 193.984C85.1509 194.316 85.2461 194.641 85.3578 194.921C85.765 196.06 86.0606 196.793 85.8603 196.934C85.6599 197.075 85.0261 196.553 84.2969 195.453C84.0945 195.155 83.9102 194.846 83.7452 194.526C83.5557 194.159 83.3858 193.782 83.2361 193.397C82.8995 192.508 82.6573 191.587 82.5135 190.648Z" fill="#213346"/>
        <path d="M93.0464 195.196C92.8387 193.68 92.832 192.143 93.0267 190.625C93.1811 189.472 93.411 188.772 93.6409 188.776C93.8708 188.779 94.0613 189.495 94.2124 190.625C94.3635 191.754 94.4751 193.305 94.7083 194.96C94.8298 195.784 94.9776 196.556 95.1353 197.259C95.2305 197.587 95.2995 197.936 95.398 198.244C95.4396 198.398 95.4823 198.545 95.5261 198.688L95.6608 199.092C95.9892 200.123 96.2815 200.786 96.0845 200.934C95.8874 201.082 95.2765 200.632 94.5999 199.62L94.3438 199.216C94.2616 199.075 94.1861 198.921 94.104 198.76C93.9351 198.42 93.7848 198.072 93.654 197.716C93.3719 196.897 93.1684 196.054 93.0464 195.196Z" fill="#213346"/>
        <path d="M105.609 197.394C104.223 192.467 104.036 188.312 104.483 188.257C104.929 188.201 105.872 192.149 107.225 196.944C108.578 201.739 109.829 205.601 109.393 205.788C108.956 205.976 106.979 202.317 105.609 197.394Z" fill="#213346"/>
        <path d="M142.686 201.384C143.307 199.312 143.744 197.364 144.131 195.958C144.519 194.553 144.844 193.679 145.077 193.715C145.31 193.751 145.386 194.671 145.301 196.149C145.182 198.089 144.844 200.01 144.292 201.873C143.975 202.912 143.572 203.923 143.087 204.895C142.867 205.319 142.626 205.731 142.364 206.13C142.243 206.317 142.125 206.501 142.003 206.669L141.632 207.138C140.647 208.324 139.839 208.826 139.684 208.679C139.53 208.531 139.993 207.736 140.643 206.485C140.725 206.33 140.808 206.156 140.896 205.995L141.152 205.453C141.336 205.086 141.481 204.668 141.684 204.248C142.026 203.384 142.371 202.419 142.686 201.384Z" fill="#213346"/>
        <path d="M152.47 197.647C152.91 195.124 153.127 192.753 153.456 191.045C153.784 189.337 154.05 188.296 154.28 188.316C154.51 188.335 154.631 189.416 154.635 191.147C154.658 193.422 154.487 195.696 154.126 197.942C153.908 199.204 153.569 200.443 153.114 201.64C152.738 202.626 152.251 203.566 151.662 204.442C150.631 205.933 149.692 206.564 149.524 206.412C149.357 206.261 149.941 205.362 150.631 203.851C151.03 202.966 151.371 202.057 151.652 201.128C151.996 199.985 152.269 198.823 152.47 197.647Z" fill="#213346"/>
        <path d="M162.369 191.341C162.859 189.298 163.197 187.399 163.512 186.01C163.828 184.621 164.113 183.773 164.346 183.8C164.58 183.826 164.701 184.713 164.675 186.148C164.647 188.029 164.415 189.901 163.982 191.731C163.736 192.754 163.407 193.755 162.997 194.723C162.79 195.167 162.606 195.587 162.382 195.962C162.274 196.152 162.175 196.336 162.054 196.507L161.726 196.99C160.875 198.202 160.126 198.76 159.959 198.632C159.791 198.504 160.159 197.689 160.688 196.425L160.927 195.939C160.993 195.765 161.062 195.584 161.131 195.393C161.285 195.026 161.41 194.612 161.565 194.188C161.844 193.311 162.12 192.359 162.369 191.341Z" fill="#213346"/>
        <path d="M165.723 188.253C166.251 186.94 166.685 185.695 167.036 184.532C167.201 183.948 167.365 183.396 167.499 182.867C167.634 182.338 167.756 181.849 167.861 181.399C168.275 179.592 168.495 178.443 168.741 178.443C168.987 178.443 169.158 179.638 169.033 181.57C169 182.049 168.954 182.578 168.862 183.14C168.77 183.701 168.662 184.299 168.534 184.926C167.907 187.641 166.831 190.231 165.351 192.592C165 193.127 164.672 193.64 164.323 194.09C163.975 194.54 163.65 194.957 163.338 195.318C162.061 196.77 161.075 197.469 160.918 197.318C160.76 197.167 161.4 196.182 162.386 194.612C162.632 194.218 162.901 193.791 163.171 193.318C163.44 192.845 163.726 192.332 164.025 191.814C164.593 190.743 165.197 189.544 165.723 188.253Z" fill="#213346"/>
        <path d="M73.6885 162.944C73.9348 161.745 74.5851 160.908 75.0252 161.046C75.4653 161.184 75.5573 162.172 75.3306 163.282C75.104 164.392 74.6278 165.253 74.1647 165.217C73.7016 165.181 73.4421 164.14 73.6885 162.944Z" fill="white"/>
        <path d="M74.1023 175.904C73.6662 174.314 73.4583 172.669 73.4848 171.02C73.5275 169.756 73.7443 168.984 73.9676 168.984C74.4504 168.984 74.7624 171.966 75.7248 175.467C76.6871 178.968 77.9023 181.708 77.4885 181.944C77.2947 182.056 76.7134 181.504 76.0368 180.433C75.1748 179.026 74.5231 177.5 74.1023 175.904Z" fill="white"/>
        <path d="M102.975 162.599H102.814C101.126 162.54 99.7991 161.532 98.735 160.724L98.6693 160.675C92.0987 155.707 84.4337 152.386 76.316 150.989C75.937 150.915 75.6018 150.697 75.3821 150.379C75.1624 150.062 75.0757 149.671 75.1405 149.29C75.2053 148.909 75.4165 148.569 75.7288 148.342C76.0412 148.115 76.4299 148.02 76.8119 148.076C85.3994 149.552 93.5082 153.065 100.459 158.32L100.522 158.369C101.333 158.983 102.164 159.617 102.923 159.647C103.681 159.676 104.519 159.118 105.412 158.53L105.665 158.366C110.706 155.065 117.246 153.242 124.097 153.242C130.938 153.242 137.487 155.055 142.532 158.353L142.785 158.517C143.675 159.105 144.525 159.66 145.274 159.633C146.023 159.607 146.864 158.977 147.672 158.356L147.737 158.307C154.689 153.052 162.797 149.539 171.385 148.063C171.578 148.025 171.777 148.027 171.97 148.067C172.163 148.108 172.345 148.186 172.507 148.298C172.669 148.41 172.807 148.553 172.913 148.72C173.019 148.886 173.09 149.071 173.123 149.266C173.156 149.46 173.15 149.658 173.105 149.85C173.061 150.042 172.978 150.223 172.862 150.382C172.746 150.542 172.6 150.676 172.431 150.778C172.263 150.88 172.076 150.947 171.881 150.976C163.763 152.373 156.098 155.694 149.527 160.661L149.462 160.711C148.398 161.519 147.071 162.527 145.383 162.586C143.694 162.645 142.285 161.726 141.162 160.987L140.919 160.826C131.487 154.664 116.71 154.664 107.278 160.826L107.035 160.987C105.947 161.712 104.601 162.599 102.975 162.599Z" fill="#213346"/>
        <path d="M124.271 147.383C124.077 147.383 123.884 147.345 123.705 147.271C123.525 147.197 123.362 147.088 123.225 146.951C123.087 146.814 122.979 146.65 122.904 146.471C122.83 146.291 122.792 146.099 122.793 145.905V130.603C122.793 130.211 122.949 129.835 123.226 129.558C123.503 129.281 123.879 129.125 124.271 129.125C124.663 129.125 125.039 129.281 125.316 129.558C125.593 129.835 125.749 130.211 125.749 130.603V145.905C125.749 146.099 125.711 146.291 125.636 146.47C125.562 146.65 125.453 146.813 125.316 146.95C125.179 147.087 125.016 147.196 124.836 147.27C124.657 147.345 124.465 147.383 124.271 147.383Z" fill="#213346"/>
        <path d="M120.224 106.995C120.776 109.432 120.582 112.684 118.871 114.651C116.874 116.95 113.731 116.477 111.015 116.362C107.699 116.216 104.38 116.556 101.162 117.37C98.5346 118.044 96.1896 119.669 93.5194 120.116C90.5963 120.625 89.9066 119.065 91.8575 116.924C94.1565 114.408 97.4409 111.728 100.545 110.273C106.312 107.56 113.652 106.236 120.119 106.883" fill="#E2A78D"/>
        <path d="M128.823 108.072C128.271 110.509 128.468 113.761 130.179 115.728C132.173 118.027 135.319 117.554 138.035 117.439C141.351 117.293 144.671 117.633 147.889 118.448C150.516 119.121 152.861 120.73 155.531 121.193C158.458 121.702 159.144 120.146 157.193 118.001C154.914 115.485 151.61 112.808 148.509 111.35C142.739 108.637 135.401 107.314 128.931 107.964" fill="#E2A78D"/>
        <path d="M129.132 104.486C128.58 106.92 128.774 110.171 130.485 112.138C132.478 114.437 135.625 113.968 138.341 113.853C141.657 113.705 144.977 114.044 148.194 114.861C150.821 115.534 153.17 117.14 155.837 117.607C158.763 118.116 159.449 116.556 157.502 114.411C155.219 111.895 151.918 109.219 148.815 107.76C143.044 105.047 135.707 103.727 129.24 104.374" fill="#B46078"/>
        <path d="M156.855 119.18C156.431 119.177 156.008 119.138 155.59 119.062C153.948 118.776 152.467 118.129 151.038 117.502C150.004 117.013 148.932 116.609 147.833 116.293C144.754 115.51 141.577 115.186 138.403 115.331C138.114 115.331 137.819 115.357 137.523 115.373C134.896 115.518 131.611 115.702 129.368 113.111C127.197 110.614 127.108 106.729 127.69 104.157C127.781 103.836 127.962 103.547 128.211 103.324C128.461 103.102 128.769 102.956 129.099 102.903C136.077 102.295 143.093 103.508 149.462 106.424C152.483 107.846 155.991 110.526 158.615 113.419C160.543 115.544 160.179 117.048 159.791 117.755C159.459 118.329 158.684 119.18 156.855 119.18ZM139.839 112.342C142.783 112.336 145.716 112.701 148.568 113.429C149.822 113.784 151.045 114.241 152.224 114.795C153.538 115.377 154.805 115.925 156.096 116.149C156.398 116.206 156.705 116.231 157.012 116.221C156.846 115.926 156.645 115.652 156.411 115.406C154.034 112.779 150.884 110.365 148.201 109.1C142.634 106.552 136.528 105.405 130.416 105.76C130.186 107.645 130.459 109.846 131.608 111.169C132.922 112.667 135.08 112.549 137.372 112.424L138.288 112.375C138.801 112.355 139.32 112.342 139.839 112.342Z" fill="#213346"/>
        <path d="M118.661 103.179C119.213 105.616 119.019 108.867 117.308 110.831C115.311 113.13 112.165 112.661 109.449 112.546C106.133 112.398 102.813 112.737 99.5955 113.554C96.968 114.227 94.6229 115.853 91.9528 116.3C89.0264 116.809 88.34 115.249 90.2909 113.107C92.5702 110.591 95.8743 107.911 98.978 106.456C104.745 103.744 112.083 102.42 118.553 103.067" fill="#B46078"/>
        <path d="M90.9346 117.873C89.1085 117.873 88.3301 117.022 88.0148 116.447C87.624 115.741 87.2594 114.24 89.1906 112.112C91.8181 109.219 95.3192 106.529 98.3408 105.12C104.708 102.2 111.726 100.987 118.704 101.599C119.034 101.65 119.343 101.796 119.593 102.019C119.843 102.241 120.023 102.531 120.113 102.853C120.694 105.422 120.602 109.307 118.431 111.803C116.178 114.391 112.907 114.211 110.276 114.066L109.396 114.024C106.223 113.879 103.045 114.203 99.9666 114.986C98.8691 115.304 97.7984 115.708 96.7643 116.195C95.3324 116.822 93.8544 117.469 92.2089 117.755C91.7884 117.831 91.362 117.87 90.9346 117.873ZM90.7802 114.917C91.0862 114.928 91.3925 114.905 91.6933 114.848C92.984 114.621 94.2387 114.073 95.5688 113.492C96.7474 112.938 97.9688 112.481 99.221 112.125C102.581 111.272 106.048 110.918 109.511 111.074C109.813 111.074 110.119 111.104 110.431 111.12C112.73 111.245 114.887 111.367 116.191 109.866C117.344 108.552 117.613 106.345 117.384 104.456C111.272 104.103 105.166 105.25 99.5987 107.796C96.9088 109.061 93.7592 111.478 91.3879 114.102C91.1527 114.347 90.9486 114.619 90.7802 114.914V114.917Z" fill="#213346"/>
        <path d="M121.949 179.734C119.832 179.733 117.72 179.556 115.633 179.205C115.481 179.182 115.334 179.128 115.203 179.048C115.072 178.967 114.958 178.861 114.868 178.735C114.779 178.61 114.716 178.468 114.682 178.317C114.649 178.167 114.646 178.011 114.674 177.86C114.702 177.708 114.76 177.564 114.845 177.435C114.93 177.306 115.04 177.196 115.168 177.111C115.297 177.025 115.441 176.967 115.592 176.938C115.744 176.91 115.899 176.912 116.05 176.945C116.149 176.962 126.113 178.735 130.767 175.411C131.36 175.01 131.861 174.488 132.238 173.878C132.614 173.269 132.857 172.587 132.951 171.877C132.972 171.726 133.022 171.581 133.1 171.45C133.177 171.318 133.28 171.204 133.402 171.112C133.524 171.021 133.663 170.955 133.811 170.918C133.958 170.881 134.112 170.873 134.263 170.896C134.413 170.919 134.558 170.972 134.688 171.051C134.818 171.13 134.932 171.235 135.021 171.358C135.11 171.482 135.174 171.621 135.209 171.77C135.244 171.918 135.249 172.072 135.224 172.222C135.083 173.237 134.733 174.211 134.195 175.083C133.658 175.955 132.944 176.706 132.101 177.287C129.365 179.238 125.335 179.734 121.949 179.734Z" fill="#213346"/>
        <path d="M177.835 137.632C177.614 137.631 177.4 137.556 177.227 137.419C177.053 137.282 176.931 137.091 176.88 136.876C176.477 135.39 176.348 133.843 176.499 132.311C176.661 130.646 177.423 129.097 178.643 127.953C178.838 127.778 179.095 127.689 179.356 127.704C179.617 127.718 179.862 127.836 180.036 128.031C180.21 128.226 180.3 128.483 180.285 128.744C180.27 129.005 180.152 129.25 179.957 129.424C179.096 130.253 178.563 131.364 178.456 132.554C178.333 133.852 178.445 135.161 178.784 136.42C178.845 136.673 178.802 136.941 178.665 137.163C178.528 137.385 178.309 137.544 178.055 137.605C177.983 137.623 177.909 137.632 177.835 137.632Z" fill="#213346"/>
        <path d="M72.7918 137.632C72.7144 137.633 72.6372 137.624 72.5619 137.605C72.436 137.576 72.3171 137.521 72.2122 137.446C72.1072 137.37 72.0181 137.274 71.9501 137.164C71.8821 137.054 71.8365 136.932 71.8158 136.804C71.7951 136.676 71.7998 136.546 71.8295 136.42C72.1693 135.161 72.2805 133.852 72.158 132.554C72.0519 131.364 71.5201 130.253 70.6603 129.424C70.4652 129.25 70.3473 129.005 70.3325 128.744C70.3177 128.483 70.4073 128.226 70.5815 128.031C70.7557 127.836 71.0003 127.718 71.2614 127.704C71.5226 127.689 71.7789 127.778 71.974 127.953C73.1938 129.097 73.956 130.646 74.1187 132.311C74.2676 133.843 74.1385 135.39 73.7377 136.876C73.6866 137.089 73.5658 137.279 73.3945 137.416C73.2232 137.553 73.0111 137.629 72.7918 137.632Z" fill="#213346"/>
        <path d="M146.25 89.7522C147.13 90.1085 147.975 90.5484 148.772 91.0659C149.421 91.4882 150.026 91.9745 150.578 92.5176C151.514 93.4602 151.892 94.2353 151.662 94.4882C151.432 94.7411 150.661 94.4882 149.554 93.9726L147.646 93.0924C146.93 92.764 146.148 92.4355 145.317 92.1071C144.486 91.7786 143.675 91.4896 142.939 91.2269L140.945 90.57C139.799 90.1759 139.05 89.8474 139.063 89.4927C139.077 89.138 139.878 88.8359 141.205 88.8096C141.976 88.7952 142.746 88.859 143.504 89.0001C144.441 89.1623 145.361 89.4141 146.25 89.7522Z" fill="white"/>
        <path d="M74.076 98.5411C74.3685 97.8095 74.8406 97.1634 75.4489 96.6625C75.9481 96.2815 76.4079 96.1797 76.6904 96.3768C76.9728 96.5738 77.0418 97.0336 76.9695 97.5854C76.8608 98.2524 76.6665 98.9026 76.3915 99.5199C76.1408 100.148 75.8096 100.741 75.4062 101.284C75.0581 101.724 74.6902 101.99 74.3453 101.924C74.0005 101.858 73.7574 101.458 73.6885 100.837C73.6232 100.051 73.7565 99.2618 74.076 98.5411Z" fill="white"/>
        <path d="M81.2523 91.0298C82.323 90.5306 83.4299 90.6324 83.7254 91.263C84.021 91.8936 83.397 92.8099 82.3165 93.3092C81.2359 93.8084 80.1389 93.7033 79.8433 93.076C79.5478 92.4487 80.1816 91.529 81.2523 91.0298Z" fill="white"/>
        <path d="M86.2478 85.6336C87.0262 83.975 88.0312 82.7368 88.6947 82.9569C89.3581 83.1769 89.3745 84.8881 88.5272 86.6978C87.6798 88.5074 86.3431 89.5913 85.7585 89.2267C85.1738 88.8621 85.4727 87.2922 86.2478 85.6336Z" fill="white"/>
        <path d="M80.7531 86.2905V60.9517C80.7531 55.838 83.0292 51.2169 86.5303 49.2101L99.2407 41.9287C114.457 33.2153 131.657 33.2153 146.864 41.9287L159.578 49.2101C163.085 51.207 165.358 55.8281 165.358 60.9517V86.3003" fill="#FEFDF5"/>
        <path d="M164.363 60.5543V66.9227C148.197 51.0461 126.56 42.4148 106.003 47.2395C100.361 48.5533 94.5507 51.1282 91.1087 56.5441C86.816 63.3 87.647 73.8099 92.9249 79.5346C96.7446 83.6532 101.809 84.9275 107.028 85.9128H79.7678V60.5543C79.7678 55.4373 82.0406 50.8162 85.545 48.8094L98.2554 41.528C113.469 32.8179 130.672 32.8179 145.879 41.528L158.589 48.7996C162.093 50.8162 164.363 55.4373 164.363 60.5543Z" fill="#F4EAE1"/>
        <path d="M165.296 87.8538C164.904 87.8538 164.528 87.698 164.251 87.4209C163.973 87.1437 163.818 86.7678 163.818 86.3758V61.0272C163.818 56.4291 161.847 52.317 158.786 50.5665L146.072 43.2884C138.729 39.0811 130.964 36.9463 122.993 36.9463C115.022 36.9463 107.258 39.0811 99.914 43.2884L87.2003 50.5665C84.1459 52.317 82.1687 56.4258 82.1687 61.0272V86.3758C82.1687 86.7678 82.013 87.1437 81.7358 87.4209C81.4586 87.698 81.0827 87.8538 80.6907 87.8538C80.2987 87.8538 79.9228 87.698 79.6457 87.4209C79.3685 87.1437 79.2128 86.7678 79.2128 86.3758V61.0272C79.2128 55.3846 81.7713 50.2709 85.7322 48.0014L98.4426 40.7233C114.047 31.7865 131.943 31.7865 147.544 40.7233L160.271 48.0014C164.212 50.2709 166.774 55.3846 166.774 61.0272V86.3758C166.774 86.57 166.736 86.7624 166.662 86.9419C166.588 87.1214 166.479 87.2845 166.342 87.4218C166.204 87.5592 166.041 87.668 165.862 87.7421C165.682 87.8163 165.49 87.8542 165.296 87.8538Z" fill="#213346"/>
        <path d="M179.619 89.1971C178.951 92.0029 178.089 94.7586 177.037 97.4442C176.495 98.886 171.858 111.173 172.419 111.702C161.253 101.215 144.075 94.5014 124.796 94.5014C105.517 94.5014 88.3859 101.205 77.2224 111.675C73.1925 99.129 63.2606 80.0502 75.0646 69.3071C78.4376 66.2362 82.7336 64.9455 86.9211 63.8879C110.795 57.8578 135.733 57.0532 159.693 62.6136C163.634 63.5299 167.575 64.6335 171.145 66.7978C174.715 68.9622 177.865 72.309 179.356 76.6509C180.775 80.7564 180.545 85.0424 179.619 89.1971Z" fill="#F9637C"/>
        <path d="M82.0636 67.6781C84.402 65.5498 87.1905 64.2755 90.0741 63.3427C89.1786 63.5617 88.2831 63.7806 87.3875 63.9996C83.2 65.0571 78.904 66.3479 75.531 69.4188C63.727 80.1619 73.6589 99.2407 77.6888 111.787C79.4458 110.144 81.3111 108.621 83.2722 107.228C78.8646 94.7806 71.1136 77.6461 82.0636 67.6781Z" fill="#BA4264"/>
        <path d="M96.0877 68.5057C96.0446 68.5098 96.0011 68.5054 95.9597 68.4927C95.9183 68.4799 95.8798 68.4592 95.8464 68.4316C95.7789 68.3758 95.7364 68.2956 95.7281 68.2085C95.7198 68.1214 95.7465 68.0345 95.8022 67.9671C95.858 67.8997 95.9382 67.8571 96.0253 67.8488C98.0781 67.435 100.256 67.0639 102.499 66.7453C102.586 66.7331 102.674 66.756 102.745 66.809C102.815 66.862 102.861 66.9406 102.873 67.0278C102.885 67.1149 102.862 67.2032 102.81 67.2735C102.757 67.3437 102.678 67.39 102.591 67.4022C100.361 67.7306 98.193 68.0886 96.1534 68.4991C96.132 68.5046 96.1098 68.5068 96.0877 68.5057Z" fill="#B13A59"/>
        <path d="M80.5232 73.5833C80.4683 73.5832 80.4142 73.5693 80.366 73.543C80.3178 73.5166 80.277 73.4785 80.2473 73.4322C80.2004 73.359 80.1844 73.2702 80.2029 73.1853C80.2214 73.1003 80.2728 73.0261 80.3459 72.979C80.4838 72.8903 83.8371 70.7686 92.071 68.7356C92.1135 68.7233 92.158 68.7198 92.2018 68.7251C92.2457 68.7304 92.2881 68.7446 92.3263 68.7667C92.3646 68.7888 92.3981 68.8184 92.4246 68.8537C92.4512 68.889 92.4704 68.9293 92.481 68.9723C92.4916 69.0152 92.4934 69.0598 92.4864 69.1034C92.4794 69.147 92.4636 69.1888 92.44 69.2262C92.4165 69.2636 92.3856 69.2959 92.3493 69.3211C92.313 69.3462 92.2719 69.3638 92.2286 69.3728C84.0999 71.3795 80.7334 73.5111 80.7006 73.5308C80.6477 73.5649 80.5861 73.5832 80.5232 73.5833Z" fill="#B13A59"/>
        <path d="M134.301 65.6549H134.272C132.028 65.4545 129.844 65.3265 127.772 65.2542C127.685 65.2542 127.601 65.2196 127.54 65.158C127.478 65.0964 127.443 65.0129 127.443 64.9258C127.443 64.8387 127.478 64.7551 127.54 64.6935C127.601 64.6319 127.685 64.5973 127.772 64.5973C129.854 64.663 132.042 64.801 134.308 65.0013C134.395 65.0052 134.477 65.0436 134.536 65.108C134.595 65.1723 134.625 65.2574 134.621 65.3445C134.618 65.4316 134.579 65.5136 134.515 65.5724C134.45 65.6313 134.365 65.6621 134.278 65.6582L134.301 65.6549Z" fill="#B13A59"/>
        <path d="M111.662 66.6369C111.575 66.6439 111.489 66.616 111.422 66.5593C111.356 66.5026 111.314 66.4219 111.307 66.3348C111.3 66.2476 111.328 66.1613 111.385 66.0948C111.442 66.0283 111.522 65.987 111.61 65.98L113.367 65.6812C116.75 65.0966 120.264 64.4922 123.781 64.5481C123.869 64.5481 123.952 64.5827 124.014 64.6443C124.075 64.7059 124.11 64.7894 124.11 64.8765C124.11 64.9636 124.075 65.0471 124.014 65.1087C123.952 65.1703 123.869 65.2049 123.781 65.2049C120.307 65.1524 116.842 65.7501 113.488 66.3282L111.725 66.6271L111.662 66.6369Z" fill="#B13A59"/>
        <path d="M168.918 72.3812C168.881 72.3808 168.845 72.3742 168.81 72.3615C166.659 71.5897 164.54 70.8934 162.547 70.2957C162.505 70.2833 162.467 70.2628 162.433 70.2354C162.399 70.2081 162.372 70.1743 162.351 70.1362C162.331 70.098 162.318 70.0562 162.314 70.0131C162.31 69.97 162.314 69.9265 162.327 69.8851C162.339 69.8437 162.359 69.805 162.387 69.7715C162.414 69.738 162.448 69.7102 162.486 69.6897C162.524 69.6693 162.566 69.6566 162.609 69.6524C162.652 69.6481 162.696 69.6524 162.737 69.6651C164.75 70.2661 166.869 70.9788 169.03 71.7441C169.103 71.7704 169.163 71.8215 169.202 71.8883C169.241 71.9551 169.255 72.0335 169.241 72.1095C169.228 72.1856 169.188 72.2545 169.129 72.3042C169.07 72.3539 168.995 72.3812 168.918 72.3812Z" fill="#B13A59"/>
        <path d="M158.74 69.2316C158.714 69.2347 158.687 69.2347 158.661 69.2316C150.562 67.192 146.723 67.5204 146.686 67.5204C146.599 67.5287 146.513 67.502 146.445 67.4463C146.378 67.3905 146.335 67.3103 146.327 67.2232C146.319 67.1361 146.345 67.0492 146.401 66.9818C146.457 66.9144 146.537 66.8718 146.624 66.8635C146.782 66.8635 150.595 66.5121 158.819 68.5845C158.862 68.5897 158.904 68.6033 158.942 68.6246C158.979 68.6459 159.013 68.6744 159.04 68.7086C159.066 68.7428 159.086 68.7819 159.098 68.8237C159.11 68.8655 159.113 68.9093 159.108 68.9524C159.103 68.9955 159.089 69.0372 159.068 69.0751C159.047 69.1129 159.018 69.1462 158.984 69.1731C158.95 69.1999 158.911 69.2198 158.869 69.2315C158.827 69.2432 158.783 69.2466 158.74 69.2414V69.2316Z" fill="#B13A59"/>
        <path d="M96.275 72.7327C96.1879 72.7409 96.101 72.7143 96.0336 72.6585C95.9661 72.6028 95.9236 72.5225 95.9153 72.4354C95.9071 72.3483 95.9337 72.2615 95.9895 72.1941C96.0452 72.1266 96.1255 72.0841 96.2126 72.0758C98.262 71.662 100.443 71.2908 102.686 70.9723C102.773 70.9601 102.862 70.983 102.932 71.0359C103.002 71.0889 103.048 71.1676 103.06 71.2547C103.073 71.3418 103.05 71.4302 102.997 71.5004C102.944 71.5706 102.865 71.6169 102.778 71.6291C100.548 71.9576 98.3802 72.3156 96.3407 72.7261C96.3192 72.7315 96.2971 72.7338 96.275 72.7327Z" fill="#B13A59"/>
        <path d="M80.7104 77.8136C80.6396 77.8134 80.5707 77.7903 80.5141 77.7478C80.4575 77.7053 80.4161 77.6456 80.3961 77.5776C80.3762 77.5097 80.3787 77.4371 80.4034 77.3707C80.4281 77.3043 80.4736 77.2477 80.5331 77.2093C80.671 77.1206 84.0243 74.9989 92.2582 72.9659C92.3414 72.9487 92.4279 72.9644 92.4998 73.0096C92.5716 73.0549 92.6231 73.1262 92.6435 73.2086C92.6639 73.291 92.6516 73.3782 92.6091 73.4517C92.5667 73.5252 92.4974 73.5795 92.4159 73.603C84.3068 75.6065 80.9206 77.7413 80.8878 77.761C80.8349 77.7952 80.7734 77.8134 80.7104 77.8136Z" fill="#B13A59"/>
        <path d="M134.488 69.8851H134.459C132.216 69.6848 130.028 69.5567 127.959 69.4844C127.872 69.4844 127.788 69.4498 127.727 69.3882C127.665 69.3267 127.631 69.2431 127.631 69.156C127.631 69.0689 127.665 68.9854 127.727 68.9238C127.788 68.8622 127.872 68.8276 127.959 68.8276C130.038 68.8933 132.229 69.0312 134.492 69.2315C134.579 69.235 134.661 69.273 134.72 69.337C134.779 69.4011 134.81 69.486 134.807 69.5731C134.804 69.6602 134.766 69.7424 134.702 69.8015C134.637 69.8606 134.553 69.8919 134.465 69.8884L134.488 69.8851Z" fill="#B13A59"/>
        <path d="M111.849 70.8836C111.772 70.8843 111.697 70.8576 111.637 70.8081C111.577 70.7587 111.537 70.6897 111.523 70.6135C111.509 70.5372 111.523 70.4585 111.562 70.3914C111.6 70.3242 111.662 70.2729 111.734 70.2464C111.886 70.1906 115.538 68.8801 123.955 68.7816C124.043 68.7816 124.126 68.8162 124.188 68.8778C124.249 68.9394 124.284 69.0229 124.284 69.11C124.284 69.1971 124.249 69.2807 124.188 69.3423C124.126 69.4039 124.043 69.4385 123.955 69.4385C115.669 69.537 111.987 70.8507 111.951 70.8639C111.919 70.8758 111.884 70.8825 111.849 70.8836Z" fill="#B13A59"/>
        <path d="M169.105 76.6115C169.067 76.6115 169.03 76.6048 168.994 76.5918C166.846 75.82 164.741 75.1237 162.734 74.5259C162.65 74.5007 162.58 74.4432 162.539 74.3662C162.498 74.2893 162.489 74.199 162.514 74.1154C162.539 74.0318 162.596 73.9616 162.673 73.9203C162.75 73.8791 162.841 73.8701 162.924 73.8953C164.938 74.4964 167.056 75.2091 169.217 75.9743C169.29 76.0007 169.351 76.0518 169.389 76.1186C169.428 76.1854 169.442 76.2637 169.429 76.3398C169.415 76.4158 169.376 76.4847 169.316 76.5344C169.257 76.5841 169.183 76.6114 169.105 76.6115Z" fill="#B13A59"/>
        <path d="M158.927 73.4618C158.901 73.465 158.875 73.465 158.848 73.4618C150.73 71.4157 146.91 71.7539 146.874 71.7572C146.831 71.7615 146.787 71.7573 146.746 71.7448C146.704 71.7323 146.665 71.7117 146.632 71.6843C146.598 71.6568 146.57 71.623 146.55 71.5848C146.529 71.5466 146.517 71.5048 146.512 71.4616C146.508 71.4185 146.512 71.3749 146.525 71.3335C146.537 71.292 146.558 71.2533 146.585 71.2198C146.641 71.152 146.721 71.1091 146.808 71.1004C146.969 71.1004 150.779 70.7489 159.006 72.8214C159.093 72.8318 159.173 72.8764 159.227 72.9454C159.281 73.0144 159.306 73.1021 159.295 73.1892C159.285 73.2763 159.24 73.3557 159.171 73.4099C159.102 73.4641 159.014 73.4887 158.927 73.4782V73.4618Z" fill="#B13A59"/>
        <path d="M95.8973 77.5048C95.8204 77.5064 95.7455 77.481 95.6855 77.4329C95.6255 77.3849 95.5842 77.3174 95.5688 77.2421C95.5602 77.1998 95.56 77.1563 95.5682 77.1139C95.5764 77.0716 95.5929 77.0312 95.6166 76.9952C95.6404 76.9593 95.6711 76.9283 95.7068 76.9042C95.7426 76.88 95.7827 76.8632 95.825 76.8545C97.8777 76.444 100.055 76.0696 102.298 75.751C102.341 75.7445 102.385 75.7466 102.427 75.7571C102.47 75.7677 102.509 75.7865 102.544 75.8124C102.579 75.8384 102.608 75.871 102.63 75.9084C102.652 75.9458 102.667 75.9872 102.673 76.0302C102.685 76.1164 102.663 76.2039 102.61 76.2735C102.558 76.3431 102.48 76.3891 102.394 76.4013C100.16 76.7297 97.9927 77.0877 95.9531 77.4983C95.9349 77.5029 95.9161 77.5051 95.8973 77.5048Z" fill="#B13A59"/>
        <path d="M80.336 82.5857C80.2811 82.5857 80.227 82.5718 80.1788 82.5454C80.1306 82.519 80.0898 82.4809 80.0601 82.4347C80.0132 82.3615 79.9972 82.2726 80.0157 82.1877C80.0342 82.1027 80.0856 82.0285 80.1587 81.9814C80.2966 81.8927 83.6532 79.7711 91.8871 77.738C91.9716 77.7172 92.0609 77.7307 92.1354 77.7757C92.2099 77.8207 92.2635 77.8933 92.2845 77.9778C92.2948 78.0199 92.2966 78.0635 92.2899 78.1063C92.2833 78.1491 92.2682 78.1901 92.2456 78.227C92.223 78.264 92.1934 78.2961 92.1583 78.3215C92.1233 78.3469 92.0836 78.3652 92.0414 78.3752C83.916 80.3819 80.5462 82.5135 80.5134 82.5332C80.4605 82.5673 80.3989 82.5856 80.336 82.5857Z" fill="#B13A59"/>
        <path d="M134.114 74.6573H134.084C131.841 74.4537 129.657 74.3289 127.588 74.2533C127.501 74.2533 127.417 74.2187 127.356 74.1571C127.294 74.0955 127.26 74.012 127.26 73.9249C127.26 73.8378 127.294 73.7543 127.356 73.6927C127.417 73.6311 127.501 73.5965 127.588 73.5965C129.67 73.6622 131.858 73.8001 134.124 74.0004C134.211 74.0044 134.293 74.0427 134.352 74.1071C134.411 74.1715 134.441 74.2566 134.438 74.3437C134.434 74.4308 134.395 74.5127 134.331 74.5716C134.266 74.6304 134.181 74.6612 134.094 74.6573H134.114Z" fill="#B13A59"/>
        <path d="M111.475 75.6558C111.397 75.6564 111.322 75.6297 111.263 75.5803C111.203 75.5309 111.163 75.4619 111.149 75.3856C111.135 75.3094 111.149 75.2307 111.187 75.1635C111.226 75.0964 111.287 75.045 111.36 75.0186C111.514 74.9628 115.163 73.6523 123.584 73.5538C123.671 73.5538 123.755 73.5884 123.817 73.65C123.878 73.7116 123.913 73.7951 123.913 73.8822C123.913 73.9693 123.878 74.0529 123.817 74.1144C123.755 74.176 123.671 74.2106 123.584 74.2106C115.278 74.3092 111.619 75.6229 111.583 75.6361C111.548 75.6483 111.512 75.6549 111.475 75.6558Z" fill="#B13A59"/>
        <path d="M168.734 81.387C168.696 81.3869 168.658 81.3802 168.623 81.3673C166.475 80.5921 164.369 79.8959 162.363 79.2981C162.321 79.2857 162.283 79.2652 162.249 79.2379C162.216 79.2105 162.188 79.1768 162.167 79.1386C162.147 79.1004 162.134 79.0586 162.13 79.0155C162.126 78.9725 162.13 78.929 162.143 78.8876C162.168 78.8045 162.225 78.7348 162.301 78.6936C162.377 78.6524 162.467 78.643 162.55 78.6675C164.566 79.2718 166.685 79.9813 168.843 80.7465C168.917 80.771 168.981 80.8215 169.022 80.8889C169.062 80.9562 169.077 81.0358 169.064 81.1134C169.051 81.1909 169.011 81.2612 168.95 81.3114C168.889 81.3616 168.813 81.3884 168.734 81.387Z" fill="#B13A59"/>
        <path d="M158.553 78.234H158.474C150.378 76.1944 146.535 76.5261 146.499 76.5294C146.412 76.5377 146.325 76.511 146.258 76.4553C146.19 76.3995 146.148 76.3193 146.14 76.2322C146.131 76.145 146.158 76.0582 146.214 75.9908C146.27 75.9233 146.35 75.8808 146.437 75.8725C146.595 75.8725 150.404 75.5211 158.635 77.5935C158.722 77.6044 158.801 77.6495 158.855 77.7187C158.909 77.788 158.933 77.8759 158.922 77.963C158.911 78.0501 158.866 78.1293 158.797 78.1832C158.728 78.2371 158.64 78.2613 158.553 78.2504V78.234Z" fill="#B13A59"/>
        <path d="M105.842 52.3927C106.854 52.2867 107.876 52.3987 108.841 52.7211C109.586 53.0036 109.997 53.378 109.951 53.7064C109.905 54.0348 109.426 54.3009 108.723 54.4815C107.847 54.6815 106.958 54.8133 106.062 54.8756C105.169 54.9709 104.27 54.9962 103.372 54.9512C102.65 54.8986 102.138 54.7377 102.029 54.406C101.921 54.0743 102.259 53.6309 102.945 53.2269C103.84 52.7437 104.828 52.4592 105.842 52.3927Z" fill="white"/>
        <path d="M123.867 51.7555C128.491 52.0412 132.153 53.0495 132.078 53.7261C132.002 54.4027 128.265 54.5406 123.722 54.2615C119.18 53.9823 115.482 53.3977 115.485 52.7113C115.488 52.0248 119.246 51.4763 123.867 51.7555Z" fill="white"/>
        <path d="M76.5196 114.352L75.8036 112.129C75.1763 110.158 74.3979 108.046 73.5768 105.793C69.0378 93.3781 63.3953 77.9252 74.0596 68.2134C77.725 64.8929 82.2442 63.5431 86.5599 62.4526C111.307 56.2124 136.712 55.7624 160.028 61.175C163.992 62.0947 168.176 63.2507 171.914 65.5498C176.144 68.1214 179.284 71.8952 180.755 76.1747C182.095 80.0699 182.197 84.4414 181.061 89.5322C180.384 92.4051 179.506 95.2267 178.433 97.9762L178.387 98.1076C175.103 106.837 173.897 110.792 173.865 111.524C173.856 111.356 173.815 111.191 173.743 111.039C173.671 110.887 173.569 110.75 173.444 110.637L171.421 112.792C160.041 102.101 143.054 95.9793 124.8 95.9793C106.545 95.9793 89.6012 102.092 78.2307 112.756L76.5196 114.352ZM126.563 60.3736C113.316 60.3981 100.122 62.0594 87.2824 65.3199C83.3412 66.3052 79.2095 67.5303 76.0598 70.4008C66.8636 78.7759 72.1186 93.1942 76.362 104.781C76.9039 106.266 77.4294 107.698 77.9056 109.074C89.7687 98.8466 106.713 93.0234 124.806 93.0234C142.778 93.0234 159.62 98.7678 171.444 108.861C171.772 107.793 172.222 106.387 172.817 104.68C173.562 102.525 174.495 99.96 175.589 97.0533L175.638 96.9252C176.67 94.3019 177.519 91.6099 178.177 88.8687C179.188 84.3265 179.119 80.4805 177.96 77.1173C176.712 73.4881 174.019 70.2694 170.377 68.0525C167.184 66.1114 163.663 65.0473 159.361 64.0488C148.604 61.5804 137.6 60.3474 126.563 60.3736Z" fill="#213346"/>
        <path d="M165.624 126.967C165.534 125.82 165.516 124.668 165.568 123.519C165.634 122.609 165.805 121.998 166.146 121.916C166.488 121.834 166.925 122.317 167.319 123.2C168.248 125.515 168.413 128.066 167.792 130.481C167.516 131.408 167.135 131.943 166.806 131.907C166.478 131.871 166.209 131.286 166.025 130.393C165.819 129.261 165.685 128.116 165.624 126.967Z" fill="white"/>
        <path d="M163.69 117.114C163.53 116.758 163.447 116.372 163.447 115.981C163.434 115.806 163.456 115.63 163.513 115.463C163.569 115.297 163.658 115.144 163.775 115.012C163.921 114.888 164.102 114.81 164.293 114.791C164.484 114.771 164.677 114.809 164.846 114.901C165.355 115.16 165.758 115.589 165.985 116.113C166.213 116.638 166.251 117.225 166.094 117.774C166.044 117.96 165.94 118.127 165.795 118.253C165.65 118.379 165.47 118.458 165.279 118.48C165.103 118.477 164.928 118.439 164.767 118.368C164.605 118.297 164.459 118.194 164.337 118.067C164.057 117.798 163.837 117.473 163.69 117.114Z" fill="white"/>
        <path d="M160.346 111.908C160.018 111.491 160.198 110.808 160.747 110.381C161.295 109.954 162.001 109.944 162.33 110.362C162.658 110.779 162.474 111.465 161.926 111.892C161.377 112.319 160.671 112.326 160.346 111.908Z" fill="white"/>
        <path d="M146.706 89.1971C148.212 89.4686 149.651 90.026 150.946 90.8393C151.932 91.4962 152.395 92.1169 152.234 92.4158C152.073 92.7147 151.331 92.6818 150.263 92.4815C149.196 92.2812 147.783 91.9527 146.22 91.644C144.657 91.3353 143.228 91.1152 142.161 90.8984C141.093 90.6817 140.397 90.4485 140.364 90.0971C140.331 89.7456 140.991 89.3614 142.148 89.1118C143.659 88.8477 145.206 88.8767 146.706 89.1971Z" fill="white"/>
        <path d="M159.164 93.9069C159.372 93.9896 159.562 94.1137 159.721 94.2718C159.88 94.4298 160.006 94.6186 160.09 94.8265C160.155 94.9891 160.176 95.166 160.15 95.3392C160.124 95.5124 160.052 95.6755 159.942 95.8118C159.722 96.0632 159.423 96.2323 159.095 96.2913C158.793 96.3647 158.476 96.3406 158.188 96.2226C157.901 96.1047 157.658 95.8988 157.495 95.6345C157.306 95.3586 157.219 95.0252 157.249 94.6919C157.269 94.516 157.336 94.3488 157.443 94.2078C157.55 94.0668 157.693 93.9572 157.857 93.8905C158.064 93.8045 158.287 93.7617 158.512 93.7645C158.737 93.7673 158.958 93.8158 159.164 93.9069Z" fill="white"/>
        <path d="M166.859 97.8843C167.545 98.3132 168.126 98.89 168.56 99.5724C168.889 100.127 168.951 100.607 168.721 100.866C168.491 101.126 168.022 101.129 167.447 100.958C166.065 100.471 164.818 99.6617 163.811 98.597C163.42 98.1405 163.23 97.7102 163.378 97.3916C163.525 97.073 163.985 96.9417 164.626 97.0139C165.425 97.1345 166.188 97.4318 166.859 97.8843Z" fill="white"/>
        <path d="M105.547 140.121C109.702 140.121 113.071 136.752 113.071 132.597C113.071 128.441 109.702 125.072 105.547 125.072C101.391 125.072 98.0222 128.441 98.0222 132.597C98.0222 136.752 101.391 140.121 105.547 140.121Z" fill="#213346"/>
        <path d="M108.903 131.174C111.207 131.174 113.074 129.307 113.074 127.003C113.074 124.7 111.207 122.832 108.903 122.832C106.6 122.832 104.732 124.7 104.732 127.003C104.732 129.307 106.6 131.174 108.903 131.174Z" fill="#F9CDB7"/>
        <path d="M102.525 137.139C103.483 137.139 104.259 136.362 104.259 135.405C104.259 134.447 103.483 133.671 102.525 133.671C101.567 133.671 100.791 134.447 100.791 135.405C100.791 136.362 101.567 137.139 102.525 137.139Z" fill="white"/>
        <path d="M140.361 141.763C144.516 141.763 147.885 138.394 147.885 134.239C147.885 130.083 144.516 126.714 140.361 126.714C136.205 126.714 132.836 130.083 132.836 134.239C132.836 138.394 136.205 141.763 140.361 141.763Z" fill="#213346"/>
        <path d="M143.717 132.817C146.021 132.817 147.889 130.949 147.889 128.646C147.889 126.342 146.021 124.474 143.717 124.474C141.414 124.474 139.546 126.342 139.546 128.646C139.546 130.949 141.414 132.817 143.717 132.817Z" fill="#F9CDB7"/>
        <path d="M137.339 138.781C138.297 138.781 139.073 138.005 139.073 137.047C139.073 136.089 138.297 135.313 137.339 135.313C136.381 135.313 135.605 136.089 135.605 137.047C135.605 138.005 136.381 138.781 137.339 138.781Z" fill="white"/>
    </g>
    <defs>
        <clipPath id="clip0_0_1">
            <rect width="128.52" height="183.96" fill="white" transform="translate(61.74 34.02)"/>
        </clipPath>
    </defs>
</svg>
